# xmcd CD database file
#
# Track frame offsets:
#	150
#	16181
#	31072
#	48707
#	67650
#	79987
#	94709
#	111629
#	124307
#	141653
#	160722
#
# Disc length: 2958 seconds
#
# Revision: 0
# Processed by: cddbd v1.5.2PL0 Copyright (c) Steve Scherf et al.
# Submitted via: CDex 1.70beta2
#
DISCID=930b8c0b
DTITLE=Myrol - Myrol
DYEAR=2006
DGENRE=Country
TTITLE0=It Don't Work That Way
TTITLE1=You Made Me Hard
TTITLE2=Summer
TTITLE3=Somewhere Inside
TTITLE4=Southrailway and Second Street
TTITLE5=Mother Daughter
TTITLE6=Paper Thin Walls
TTITLE7=Quinteseential Cowboy
TTITLE8=If Hearts could Really Be Broken
TTITLE9=Hoadley Road
TTITLE10=The Beat Goes On
EXTD=YEAR: 2006
EXTT0=
EXTT1=
EXTT2=
EXTT3=
EXTT4=
EXTT5=
EXTT6=
EXTT7=
EXTT8=
EXTT9=
EXTT10=
PLAYORDER=
